<?xml version="1.0" encoding="utf-8"?>
<!-- Generator: Adobe Illustrator 16.0.1, SVG Export Plug-In . SVG Version: 6.00 Build 0)  -->
<!DOCTYPE svg PUBLIC "-//W3C//DTD SVG 1.1//EN" "http://www.w3.org/Graphics/SVG/1.1/DTD/svg11.dtd">
<svg version="1.1" id="Layer_1" xmlns="http://www.w3.org/2000/svg" xmlns:xlink="http://www.w3.org/1999/xlink" x="0px" y="0px"
	 width="25px" height="25px" viewBox="0 0 25 25" enable-background="new 0 0 25 25" xml:space="preserve">
<g>
	<path fill="#474747" d="M21.52,4.612H5.42c0-0.842-0.683-1.525-1.525-1.525H3.356c-0.842,0-1.525,0.683-1.525,1.525
		c0,0.063,0.011,0.124,0.019,0.186C0.772,5.199,0,6.229,0,7.447V17.75c0,1.565,1.269,2.835,2.834,2.835H21.52
		c1.565,0,2.835-1.27,2.835-2.835V7.447C24.354,5.881,23.085,4.612,21.52,4.612z M14.869,18.969c-3.741,0-6.774-2.852-6.774-6.37
		s3.033-6.371,6.774-6.371c3.742,0,6.775,2.853,6.775,6.371S18.611,18.969,14.869,18.969z"/>
	<ellipse fill="#474747" cx="14.87" cy="12.598" rx="4.048" ry="3.806"/>
</g>
</svg>
