<?xml version="1.0" encoding="utf-8"?>
<!-- Generator: Adobe Illustrator 16.0.1, SVG Export Plug-In . SVG Version: 6.00 Build 0)  -->
<!DOCTYPE svg PUBLIC "-//W3C//DTD SVG 1.1//EN" "http://www.w3.org/Graphics/SVG/1.1/DTD/svg11.dtd">
<svg version="1.1" id="Icons" xmlns="http://www.w3.org/2000/svg" xmlns:xlink="http://www.w3.org/1999/xlink" x="0px" y="0px"
	 width="20px" height="20px" viewBox="0 0 20 20" enable-background="new 0 0 20 20" xml:space="preserve">
<path id="Path" fill="#474747" d="M5.269,1.433C2.852,2.39,1.21,4.234,0.751,6.719c-0.282,1.526-0.175,3.19,0.499,4.615
	c0.15,0.318,0.331,0.622,0.544,0.904c0.104,0.138,0.215,0.269,0.335,0.394c0.215-0.076,0.422-0.173,0.62-0.283
	c0.817-0.461,1.419-1.173,2.12-1.771c-2.339-2.708,0.14-6.065,3.24-6.813c2.886-0.696,6.798,0.505,7.673,3.474
	c0.363,1.23,0.126,2.59-0.879,3.48c-0.522,0.466-1.189,0.774-1.893,0.899c-0.411,0.073-0.833,0.084-1.249,0.044
	c-0.23-0.023-0.461-0.062-0.688-0.115c-0.385-0.092-0.726-0.078-0.726-0.491c0-1.083,0-2.165,0-3.248c0-0.541,0-1.083,0-1.623
	c0-0.332,0.032-0.27-0.242-0.304C9.889,5.856,9.671,5.835,9.454,5.817c-0.765-0.06-1.566-0.1-2.326,0.03
	C6.843,5.896,6.825,5.851,6.825,6.158c0,0.25,0,0.5,0,0.749c0,0.607,0,1.213,0,1.82c0,1.813,0.137,3.649,0.062,5.458
	c-0.022,0.539-0.038,1.835-0.641,2.103c-0.7,0.31-1.318-0.346-1.964-0.482c0.088,0.91-0.48,2.71,0.579,3.168
	c0.972,0.421,2.089,0.578,3.113,0.23c2.145-0.728,2.839-3.115,2.567-5.078c3.313,0.989,6.888-0.666,8.305-3.657
	c1.008-2.129,0.582-4.774-0.937-6.585C15.067,0.49,9.293-0.161,5.269,1.433z"/>
</svg>
