<?xml version="1.0" encoding="utf-8"?>
<!-- Generator: Adobe Illustrator 16.0.1, SVG Export Plug-In . SVG Version: 6.00 Build 0)  -->
<!DOCTYPE svg PUBLIC "-//W3C//DTD SVG 1.1//EN" "http://www.w3.org/Graphics/SVG/1.1/DTD/svg11.dtd">
<svg version="1.1" id="Icons" xmlns="http://www.w3.org/2000/svg" xmlns:xlink="http://www.w3.org/1999/xlink" x="0px" y="0px"
	 width="20px" height="20px" viewBox="0 0 20 20" enable-background="new 0 0 20 20" xml:space="preserve">
<path id="Behance_3_" fill="#474747" d="M17.787,4.865h-4.936V3.603h4.936V4.865L17.787,4.865z M9.566,10.042
	c0.319,0.508,0.478,1.124,0.478,1.849c0,0.749-0.18,1.421-0.544,2.014c-0.232,0.394-0.521,0.726-0.867,0.991
	c-0.39,0.309-0.852,0.521-1.382,0.634C6.717,15.642,6.141,15.7,5.52,15.7H0V3.079h5.918c1.492,0.024,2.549,0.47,3.173,1.344
	c0.375,0.536,0.561,1.179,0.561,1.927c0,0.771-0.188,1.389-0.567,1.858c-0.21,0.263-0.521,0.502-0.932,0.719
	C8.778,9.162,9.25,9.532,9.566,10.042z M2.827,8.055H5.42c0.533,0,0.964-0.104,1.295-0.313c0.332-0.207,0.497-0.577,0.497-1.109
	c0-0.587-0.219-0.977-0.658-1.165c-0.377-0.131-0.86-0.197-1.446-0.197H2.827V8.055z M7.462,11.711c0-0.655-0.26-1.108-0.779-1.352
	c-0.291-0.139-0.701-0.21-1.226-0.215h-2.63v3.363h2.59c0.532,0,0.944-0.071,1.241-0.221C7.193,13.011,7.462,12.488,7.462,11.711z
	 M19.617,9.657c0.06,0.414,0.087,1.013,0.076,1.795h-6.391c0.035,0.909,0.339,1.544,0.917,1.908c0.348,0.228,0.771,0.34,1.265,0.34
	c0.521,0,0.947-0.136,1.274-0.415c0.178-0.148,0.335-0.356,0.471-0.621h2.343c-0.062,0.537-0.345,1.082-0.851,1.635
	c-0.784,0.879-1.886,1.319-3.3,1.319c-1.169,0-2.199-0.372-3.093-1.112c-0.892-0.743-1.339-1.95-1.339-3.622
	c0-1.569,0.402-2.77,1.207-3.604c0.81-0.837,1.854-1.254,3.142-1.254c0.763,0,1.45,0.141,2.063,0.423
	c0.612,0.282,1.117,0.727,1.516,1.338C19.278,8.326,19.51,8.947,19.617,9.657z M17.312,9.893c-0.044-0.628-0.248-1.104-0.614-1.429
	c-0.363-0.326-0.818-0.489-1.36-0.489c-0.59,0-1.046,0.175-1.369,0.519c-0.325,0.343-0.529,0.81-0.611,1.399H17.312z"/>
</svg>
