<?xml version="1.0" encoding="utf-8"?>
<!-- Generator: Adobe Illustrator 16.0.1, SVG Export Plug-In . SVG Version: 6.00 Build 0)  -->
<!DOCTYPE svg PUBLIC "-//W3C//DTD SVG 1.1//EN" "http://www.w3.org/Graphics/SVG/1.1/DTD/svg11.dtd">
<svg version="1.1" id="Icons" xmlns="http://www.w3.org/2000/svg" xmlns:xlink="http://www.w3.org/1999/xlink" x="0px" y="0px"
	 width="20px" height="20px" viewBox="2.5 2.5 20 20" enable-background="new 2.5 2.5 20 20" xml:space="preserve">
<path id="Twitter_2_" fill="#474747" d="M17.703,17.387h-4.825c-0.668,0-1.241-0.232-1.708-0.705
	c-0.472-0.473-0.704-1.041-0.704-1.717V13.25h6.875c0.62,0,1.155-0.224,1.599-0.667c0.443-0.446,0.668-0.979,0.668-1.6
	c0-0.623-0.225-1.156-0.67-1.601c-0.443-0.444-0.979-0.665-1.602-0.665h-6.87v-3.55c0-0.67-0.24-1.247-0.716-1.726
	c-0.473-0.479-1.044-0.72-1.71-0.72c-0.684,0-1.265,0.236-1.739,0.706C5.826,3.899,5.588,4.479,5.588,5.17v9.797
	c0,2.016,0.712,3.736,2.138,5.166c1.427,1.43,3.146,2.145,5.155,2.145h4.824c0.67,0,1.246-0.24,1.725-0.721
	c0.477-0.477,0.717-1.055,0.717-1.725c0-0.668-0.24-1.246-0.717-1.727C18.951,17.629,18.375,17.387,17.703,17.387z"/>
</svg>
