<?xml version="1.0" encoding="utf-8"?>
<!-- Generator: Adobe Illustrator 16.0.1, SVG Export Plug-In . SVG Version: 6.00 Build 0)  -->
<!DOCTYPE svg PUBLIC "-//W3C//DTD SVG 1.1//EN" "http://www.w3.org/Graphics/SVG/1.1/DTD/svg11.dtd">
<svg version="1.1" id="Layer_1" xmlns="http://www.w3.org/2000/svg" xmlns:xlink="http://www.w3.org/1999/xlink" x="0px" y="0px"
	 width="25px" height="25px" viewBox="0 0 25 25" enable-background="new 0 0 25 25" xml:space="preserve">
<path fill="#474747" d="M13.535,4.598c0.05-0.661-0.017-1.509-0.508-2.232c-0.351-0.518-1.049-1.154-2.383-1.25
	c-0.708-0.05-1.402-0.027-2.073-0.004c-0.72,0.023-1.919,0.065-2.146-0.118c-0.013-0.025-0.038-0.14-0.013-0.37L4.131,0.371
	c-0.1,0.902,0.101,1.631,0.597,2.167c0.899,0.971,2.365,0.919,3.921,0.869c0.613-0.021,1.246-0.042,1.832-0.001
	c0.332,0.024,0.548,0.107,0.645,0.247c0.137,0.197,0.146,0.557,0.11,0.884C8.642,5.01,6.671,7.248,6.671,9.949v9.168
	c0,3.043,2.498,5.512,5.58,5.512s5.579-2.469,5.579-5.512V9.949C17.83,7.343,15.996,5.173,13.535,4.598z M8.478,11.165
	c0-1.976,1.392-3.598,3.204-3.886v4.225H8.478V11.165z M16.024,17.728c0,2.178-1.689,3.943-3.773,3.943s-3.782-1.578-3.782-3.963
	l0.009-4.976h7.546V17.728z M16.024,11.503h-3.06v-4.21c1.742,0.349,3.06,1.947,3.06,3.871V11.503z"/>
</svg>
