<?xml version="1.0" encoding="utf-8"?>
<!-- Generator: Adobe Illustrator 16.0.1, SVG Export Plug-In . SVG Version: 6.00 Build 0)  -->
<!DOCTYPE svg PUBLIC "-//W3C//DTD SVG 1.1//EN" "http://www.w3.org/Graphics/SVG/1.1/DTD/svg11.dtd">
<svg version="1.1" id="Icons" xmlns="http://www.w3.org/2000/svg" xmlns:xlink="http://www.w3.org/1999/xlink" x="0px" y="0px"
	 width="20px" height="20px" viewBox="2.5 2.5 20 20" enable-background="new 2.5 2.5 20 20" xml:space="preserve">
<path id="YouTube" fill="#474747" d="M17.938,17.004H16.85l0.005-0.633c0-0.28,0.23-0.51,0.514-0.51h0.069
	c0.283,0,0.514,0.229,0.514,0.51L17.938,17.004z M13.856,15.649c-0.276,0-0.503,0.185-0.503,0.413v3.073
	c0,0.227,0.227,0.411,0.503,0.411s0.503-0.185,0.503-0.411v-3.073C14.359,15.835,14.133,15.649,13.856,15.649z M20.484,13.93v5.85
	c0,1.401-1.215,2.551-2.702,2.551H6.665c-1.487,0-2.704-1.148-2.704-2.551v-5.85c0-1.401,1.216-2.55,2.704-2.55h11.117
	C19.27,11.379,20.484,12.527,20.484,13.93z M7.407,20.413l-0.001-6.16l1.378,0.001v-0.913l-3.674-0.006v0.897l1.146,0.003v6.179
	L7.407,20.413L7.407,20.413z M11.537,15.17h-1.148v3.291c0,0.476,0.029,0.713-0.001,0.797c-0.094,0.256-0.513,0.527-0.677,0.028
	c-0.028-0.086-0.003-0.351-0.003-0.804L9.701,15.17H8.56l0.003,3.261c0.001,0.5-0.012,0.873,0.004,1.042
	c0.028,0.299,0.018,0.647,0.296,0.846c0.517,0.372,1.509-0.055,1.756-0.587l-0.001,0.679l0.923,0.002L11.537,15.17L11.537,15.17z
	 M15.213,18.938L15.21,16.2c0-1.045-0.781-1.669-1.841-0.826l0.004-2.035l-1.147,0.003l-0.005,7.025l0.945-0.014l0.084-0.438
	C14.458,21.023,15.215,20.265,15.213,18.938z M18.808,18.573l-0.861,0.007c0,0.033-0.001,0.072-0.003,0.116v0.479
	c0,0.258-0.211,0.467-0.469,0.467h-0.17c-0.258,0-0.472-0.209-0.472-0.467v-0.053v-0.529V17.91h1.974v-0.74
	c0-0.542-0.015-1.086-0.059-1.396c-0.142-0.98-1.52-1.138-2.215-0.635c-0.219,0.157-0.387,0.366-0.481,0.649
	c-0.099,0.282-0.148,0.667-0.148,1.157v1.632C15.907,21.293,19.201,20.908,18.808,18.573z M14.39,9.712
	c0.061,0.144,0.151,0.26,0.275,0.349c0.125,0.087,0.282,0.13,0.473,0.13c0.166,0,0.311-0.043,0.439-0.138
	c0.128-0.09,0.234-0.228,0.322-0.412l-0.021,0.451h1.281V4.645h-1.008v4.239c0,0.229-0.189,0.417-0.42,0.417
	c-0.229,0-0.418-0.188-0.418-0.417V4.645H14.26v3.674c0,0.468,0.009,0.781,0.021,0.939C14.295,9.415,14.33,9.565,14.39,9.712z
	 M10.51,6.636c0-0.523,0.043-0.931,0.129-1.226c0.088-0.294,0.245-0.529,0.471-0.707c0.227-0.179,0.516-0.268,0.869-0.268
	c0.295,0,0.551,0.057,0.763,0.171s0.377,0.263,0.492,0.446c0.115,0.184,0.194,0.374,0.237,0.567
	c0.043,0.196,0.062,0.492,0.062,0.892V7.89c0,0.506-0.019,0.877-0.059,1.114c-0.039,0.237-0.123,0.456-0.252,0.662
	c-0.129,0.204-0.294,0.355-0.492,0.453c-0.203,0.098-0.434,0.146-0.695,0.146c-0.292,0-0.538-0.041-0.741-0.125
	c-0.203-0.085-0.36-0.211-0.472-0.378c-0.112-0.167-0.192-0.372-0.24-0.61c-0.049-0.238-0.072-0.596-0.072-1.074L10.51,6.636
	L10.51,6.636z M11.513,8.799c0,0.309,0.229,0.561,0.509,0.561c0.279,0,0.509-0.252,0.509-0.561V5.9c0-0.308-0.229-0.561-0.509-0.561
	c-0.28,0-0.509,0.252-0.509,0.561V8.799z M7.968,10.264h1.208l0.002-4.178l1.427-3.58H9.284L8.525,5.165L7.755,2.5H6.447
	l1.519,3.587L7.968,10.264z"/>
</svg>
