<?xml version="1.0" encoding="utf-8"?>
<!-- Generator: Adobe Illustrator 16.0.1, SVG Export Plug-In . SVG Version: 6.00 Build 0)  -->
<!DOCTYPE svg PUBLIC "-//W3C//DTD SVG 1.1//EN" "http://www.w3.org/Graphics/SVG/1.1/DTD/svg11.dtd">
<svg version="1.1" id="Layer_1" xmlns="http://www.w3.org/2000/svg" xmlns:xlink="http://www.w3.org/1999/xlink" x="0px" y="0px"
	 width="25px" height="25px" viewBox="0 0 25 25" enable-background="new 0 0 25 25" xml:space="preserve">
<path fill="#474747" d="M11.532,18.676l2.145,0.009c1.395,0.006,2.531-1.171,2.537-2.628l0.018-5.566H9.032l-0.017,5.533
	C9.009,17.481,10.136,18.669,11.532,18.676z"/>
<path fill="#474747" d="M16.263,4.336c0.006-1.458-1.121-2.645-2.516-2.652l-2.145-0.009C10.206,1.669,9.07,2.845,9.064,4.304
	L9.055,9.357h7.199L16.263,4.336z"/>
<path fill="#474747" d="M17.039,9.319v2.621h0.017v4.136h-0.002c0,1.998-2.006,3.624-4.474,3.624c-2.467,0-4.473-1.626-4.473-3.624
	v-4.137h0.04v-2.62H6.4l-0.075,6.757c0,2.76,2.337,5.043,5.364,5.425v0.538c-2.711,0.233-3.522,1.939-3.558,2.89l1.779,0.074
	c0-0.013,0.167-1.196,2.608-1.13c2.507,0.062,2.728,1.164,2.731,1.172l1.775-0.16c-0.01-0.104-0.244-2.365-3.555-2.8v-0.584
	c3.027-0.382,5.365-2.665,5.365-5.425v-4.137v-2.62H17.039z"/>
</svg>
