<?xml version="1.0" encoding="utf-8"?>
<!-- Generator: Adobe Illustrator 16.0.1, SVG Export Plug-In . SVG Version: 6.00 Build 0)  -->
<!DOCTYPE svg PUBLIC "-//W3C//DTD SVG 1.1//EN" "http://www.w3.org/Graphics/SVG/1.1/DTD/svg11.dtd">
<svg version="1.1" id="Layer_1" xmlns="http://www.w3.org/2000/svg" xmlns:xlink="http://www.w3.org/1999/xlink" x="0px" y="0px"
	 width="25px" height="25px" viewBox="0 0 25 25" enable-background="new 0 0 25 25" xml:space="preserve">
<rect x="11.62" y="13.42" fill="none" width="4.319" height="3.28"/>
<g>
	<polygon fill="#474747" points="18.609,12.87 18.609,17.211 23.341,20.149 23.341,9.708 	"/>
	<path fill="#474747" d="M20.461,6.592c0-2.666-2.162-4.827-4.828-4.827s-4.828,2.161-4.828,4.827c0,1.409,0.732,2.832,1.695,3.714
		c-0.997-0.081-2.297,0-3.583,0c0.807-0.85,1.256-2.153,1.256-3.269c0-2.667-2.161-4.828-4.828-4.828
		c-2.666,0-4.827,2.161-4.827,4.828c0,2.189,1.466,4.017,3.464,4.608c-0.218,0.419-0.356,0.889-0.356,1.393v4.648
		c0,1.69,1.37,3.061,3.059,3.061h1.566v2.159h5.035v-2.159h1.635c1.691,0,3.062-1.37,3.062-3.061v-4.648
		c0-0.733-0.274-1.396-0.708-1.924C19.129,10.44,20.461,8.679,20.461,6.592z M2.748,6.856c-0.001-1.433,1.158-2.594,2.59-2.596
		c1.431-0.001,2.594,1.157,2.596,2.59c0.001,1.431-1.159,2.594-2.59,2.596C3.912,9.448,2.75,8.287,2.748,6.856z M15.939,16.7H11.62
		v-3.28h4.319V16.7z M15.655,9.129c-1.399,0.013-2.546-1.113-2.56-2.513c-0.013-1.401,1.113-2.546,2.514-2.56
		c1.4-0.013,2.546,1.112,2.559,2.512S17.056,9.116,15.655,9.129z"/>
</g>
</svg>
