<?xml version="1.0" encoding="utf-8"?>
<!-- Generator: Adobe Illustrator 16.0.1, SVG Export Plug-In . SVG Version: 6.00 Build 0)  -->
<!DOCTYPE svg PUBLIC "-//W3C//DTD SVG 1.1//EN" "http://www.w3.org/Graphics/SVG/1.1/DTD/svg11.dtd">
<svg version="1.1" id="Layer_1" xmlns="http://www.w3.org/2000/svg" xmlns:xlink="http://www.w3.org/1999/xlink" x="0px" y="0px"
	 width="25px" height="25px" viewBox="0 0 25 25" enable-background="new 0 0 25 25" xml:space="preserve">
<path fill="#474747" d="M18.289,17.803l-0.001-0.394c0-0.116-0.032-11.44-0.001-13.403c0.019-1.113-0.423-1.798-0.796-2.177
	c-0.823-0.837-1.956-0.88-2.181-0.88h-5.118c-1.283,0-1.998,0.505-2.371,0.93C7.163,2.625,7.163,3.539,7.184,3.84v13.922l4.631,5.71
	l-4.637,0.007v0.925l5.555,0.018L18.289,17.803z M16.134,16.615h-1.701V4.945h1.692C16.111,7.74,16.126,14.32,16.134,16.615z
	 M13.356,16.615h-1.466V4.945h1.466V16.615z M10.814,16.615H9.337V4.945h1.477V16.615z M15.57,17.693l-2.884,3.434L9.9,17.693H15.57
	z M9.438,3.302c0.112-0.127,0.387-0.2,0.755-0.2h5.121c0.108,0.002,0.461,0.049,0.645,0.239c0.105,0.108,0.154,0.293,0.165,0.528
	H9.337V3.795L9.329,3.66C9.329,3.658,9.328,3.426,9.438,3.302z"/>
</svg>
