<?xml version="1.0" encoding="utf-8"?>
<!-- Generator: Adobe Illustrator 16.0.1, SVG Export Plug-In . SVG Version: 6.00 Build 0)  -->
<!DOCTYPE svg PUBLIC "-//W3C//DTD SVG 1.1//EN" "http://www.w3.org/Graphics/SVG/1.1/DTD/svg11.dtd">
<svg version="1.1" id="Icons" xmlns="http://www.w3.org/2000/svg" xmlns:xlink="http://www.w3.org/1999/xlink" x="0px" y="0px"
	 width="20px" height="20px" viewBox="7.5 7.5 20 20" enable-background="new 7.5 7.5 20 20" xml:space="preserve">
<path id="Facebook__x28_alt_x29_" fill="#474747" d="M27.57,10.787c0-1.764-1.593-3.357-3.356-3.357H10.786
	c-1.764,0-3.356,1.594-3.356,3.357v13.426c0,1.764,1.593,3.357,3.357,3.357H17.5v-7.609h-2.462v-3.355H17.5v-1.309
	c0-2.256,1.692-4.286,3.776-4.286h2.713v3.356h-2.713c-0.298,0-0.644,0.36-0.644,0.9v1.338h3.356v3.355h-3.356v7.609h3.581
	c1.764,0,3.356-1.594,3.356-3.357V10.787z"/>
</svg>
