<?xml version="1.0" encoding="utf-8"?>
<!-- Generator: Adobe Illustrator 16.0.1, SVG Export Plug-In . SVG Version: 6.00 Build 0)  -->
<!DOCTYPE svg PUBLIC "-//W3C//DTD SVG 1.1//EN" "http://www.w3.org/Graphics/SVG/1.1/DTD/svg11.dtd">
<svg version="1.1" id="Layer_1" xmlns="http://www.w3.org/2000/svg" xmlns:xlink="http://www.w3.org/1999/xlink" x="0px" y="0px"
	 width="60px" height="60px" viewBox="0 0 60 60" enable-background="new 0 0 60 60" xml:space="preserve">
<rect fill="#FF6600" width="60" height="60"/>
<path fill="#FFFFFF" d="M19.858,20.55c0,0.003,0.004,0.003,0.004,0.003c4.547,2.798,10.307,1.355,12.871-3.222
	c0.848-1.521,1.235-3.194,1.211-4.855c0.117-1.318,0.5-2.623,1.177-3.829c2.56-4.579,8.323-6.023,12.87-3.226
	c4.548,2.801,6.158,8.779,3.597,13.359c-0.713,1.271-1.669,2.299-2.78,3.063c0,0.003,0,0.008,0,0.008
	c-1.309,0.788-2.439,1.919-3.248,3.37c-2.561,4.576-0.951,10.557,3.594,13.354c3.898,2.982,5.154,8.496,2.761,12.779
	c-2.56,4.578-8.324,6.021-12.87,3.225c-2.913-1.79-4.616-4.891-4.8-8.087c-0.218-3.146-1.919-6.181-4.786-7.948
	c-2.984-1.834-6.488-1.847-9.27-0.342c-2.688,1.234-5.946,1.117-8.741-0.602c-4.548-2.799-6.16-8.778-3.599-13.36
	C10.25,19.945,15.465,18.414,19.858,20.55z"/>
</svg>
